<svg version="1.1" baseProfile="full" width="544.5" height="251" viewbox="0 0 544.5 251" xmlns="http://www.w3.org/2000/svg" xmlns:xlink="http://www.w3.org/1999/xlink" xmlns:ev="http://www.w3.org/2001/xml-events" style="font-weight:bold; font-size:12pt; font-family:'Calibri', Helvetica, sans-serif;;stroke-width:3;stroke-linejoin:round;stroke-linecap:round">
<title >nomnoml</title>
<desc >#.interface: fill=lightblue
#.enumeration: fill=lightgreen
[BananaModel|+peel: number;+test: FruitModel|]
[FruitModel]&lt;:-[BananaModel]
[FruitModel|+testString: string|]
[MangoModel|+peel: number;+test: FruitModel|]
[FruitModel]&lt;:-[MangoModel]
[UserModel|+userId: any;+username: string;+password: string|]</desc>
<path d="M160 98.5 L104.5 133.5 L104.5 153.5 L104.5 153.5 " style="stroke:#33322E;fill:none;stroke-dasharray:none;"></path>
<path d="M151.6 110.1 L148.7 105.6 L145.9 101.1 L160 98.5 Z" style="stroke:#33322E;fill:#eee8d5;stroke-dasharray:none;"></path>
<path d="M271 98.5 L326.5 133.5 L326.5 153.5 L326.5 153.5 " style="stroke:#33322E;fill:none;stroke-dasharray:none;"></path>
<path d="M285.1 101.1 L282.3 105.6 L279.4 110.1 L271 98.5 Z" style="stroke:#33322E;fill:#eee8d5;stroke-dasharray:none;"></path>
<rect x="13.5" y="153.5" height="85" width="182" style="stroke:#33322E;fill:#eee8d5;stroke-dasharray:none;"></rect>
<a id="../../src/domain/models/banana.model.ts.BananaModel" xlink:href="../../src/domain/models/banana.model.ts"><text x="104.5" y="175" style="fill: #33322E;text-anchor: middle;">BananaModel</text></a>
<path d="M13.5 184.5 L195.5 184.5" style="stroke:#33322E;fill:none;stroke-dasharray:none;"></path>
<text x="21.5" y="206" style="fill: #33322E;font-weight:normal;">+peel: number</text>
<text x="21.5" y="221" style="fill: #33322E;font-weight:normal;">+test: FruitModel</text>
<path d="M13.5 230.5 L195.5 230.5" style="stroke:#33322E;fill:none;stroke-dasharray:none;"></path>
<rect x="117.5" y="28.5" height="70" width="197" style="stroke:#33322E;fill:#eee8d5;stroke-dasharray:none;"></rect>
<a id="../../src/domain/models/fruit.model.ts.FruitModel" xlink:href="../../src/domain/models/fruit.model.ts"><text x="216" y="50" style="fill: #33322E;text-anchor: middle;">FruitModel</text></a>
<path d="M117.5 59.5 L314.5 59.5" style="stroke:#33322E;fill:none;stroke-dasharray:none;"></path>
<text x="125.5" y="81" style="fill: #33322E;font-weight:normal;">+testString: string</text>
<path d="M117.5 90.5 L314.5 90.5" style="stroke:#33322E;fill:none;stroke-dasharray:none;"></path>
<rect x="235.5" y="153.5" height="85" width="182" style="stroke:#33322E;fill:#eee8d5;stroke-dasharray:none;"></rect>
<a id="../../src/domain/models/mango.model.ts.MangoModel" xlink:href="../../src/domain/models/mango.model.ts"><text x="326.5" y="175" style="fill: #33322E;text-anchor: middle;">MangoModel</text></a>
<path d="M235.5 184.5 L417.5 184.5" style="stroke:#33322E;fill:none;stroke-dasharray:none;"></path>
<text x="243.5" y="206" style="fill: #33322E;font-weight:normal;">+peel: number</text>
<text x="243.5" y="221" style="fill: #33322E;font-weight:normal;">+test: FruitModel</text>
<path d="M235.5 230.5 L417.5 230.5" style="stroke:#33322E;fill:none;stroke-dasharray:none;"></path>
<rect x="354.5" y="13.5" height="100" width="178" style="stroke:#33322E;fill:#eee8d5;stroke-dasharray:none;"></rect>
<a id="../../src/domain/models/user.model.ts.UserModel" xlink:href="../../src/domain/models/user.model.ts"><text x="443.5" y="35" style="fill: #33322E;text-anchor: middle;">UserModel</text></a>
<path d="M354.5 44.5 L532.5 44.5" style="stroke:#33322E;fill:none;stroke-dasharray:none;"></path>
<text x="362.5" y="66" style="fill: #33322E;font-weight:normal;">+userId: any</text>
<text x="362.5" y="81" style="fill: #33322E;font-weight:normal;">+username: string</text>
<text x="362.5" y="96" style="fill: #33322E;font-weight:normal;">+password: string</text>
<path d="M354.5 105.5 L532.5 105.5" style="stroke:#33322E;fill:none;stroke-dasharray:none;"></path>
</svg>
